<?xml version="1.0" encoding="UTF-8" standalone="no"?>
<svg
   width="28"
   height="29"
   viewBox="0 0 28 29"
   fill="none"
   version="1.1"
   id="svg1"
   sodipodi:docname="search-buttonb.svg"
   inkscape:version="1.3.2 (091e20e, 2023-11-25, custom)"
   xmlns:inkscape="http://www.inkscape.org/namespaces/inkscape"
   xmlns:sodipodi="http://sodipodi.sourceforge.net/DTD/sodipodi-0.dtd"
   xmlns="http://www.w3.org/2000/svg"
   xmlns:svg="http://www.w3.org/2000/svg">
  <defs
     id="defs1" />
  <sodipodi:namedview
     id="namedview1"
     pagecolor="#ffffff"
     bordercolor="#000000"
     borderopacity="0.25"
     inkscape:showpageshadow="2"
     inkscape:pageopacity="0.0"
     inkscape:pagecheckerboard="0"
     inkscape:deskcolor="#d1d1d1"
     inkscape:zoom="28.310345"
     inkscape:cx="13.98782"
     inkscape:cy="14.5"
     inkscape:window-width="1920"
     inkscape:window-height="1017"
     inkscape:window-x="-8"
     inkscape:window-y="352"
     inkscape:window-maximized="1"
     inkscape:current-layer="svg1" />
  <circle
     cx="10"
     cy="10.4219"
     r="9.5"
     stroke="white"
     id="circle1" />
  <line
     x1="18.3536"
     y1="19.0683"
     x2="27.3536"
     y2="28.0683"
     stroke="white"
     id="line1" />
  <path
     style="opacity:0.984424;fill:#000000;stroke-width:0.0353228"
     d="m 9.2015834,20.378215 c -0.058283,-0.008 -0.2569732,-0.03182 -0.4415347,-0.05286 C 8.2905889,20.271824 7.6727045,20.142861 7.1644338,19.992319 3.5265123,18.914823 0.78584638,15.823052 0.16051384,12.09113 -0.49310431,8.1904018 1.1793701,4.3189661 4.4683313,2.119415 6.0488423,1.0624203 7.7699742,0.51366466 9.6961023,0.45262304 11.927958,0.38189251 14.067884,1.0379633 15.854616,2.3407358 c 2.974211,2.1686067 4.495837,5.684419 4.046033,9.3486102 -0.264972,2.15851 -1.261927,4.19312 -2.822086,5.759382 -1.544454,1.550496 -3.440193,2.512437 -5.616322,2.84985 -0.339386,0.05262 -0.680383,0.0742 -1.306943,0.08272 -0.4662602,0.0063 -0.895432,0.0049 -0.9537146,-0.0031 z M 10.68514,19.409363 c 1.1914,-0.09755 2.221082,-0.379823 3.285909,-0.900771 1.753055,-0.857651 3.167308,-2.253386 4.074823,-4.021469 C 19.180219,12.277111 19.318308,9.5522793 18.41577,7.1881851 17.74967,5.4434155 16.45913,3.8591126 14.870889,2.8363926 12.79322,1.4985139 10.250815,1.0795685 7.8239951,1.6751839 5.0152416,2.3645375 2.6831674,4.4078375 1.612486,7.1175396 1.2130958,8.1283245 1.0350406,9.0228735 1.0008057,10.190621 c -0.0370193,1.262723 0.1641222,2.413179 0.6235145,3.566276 0.6323787,1.587302 1.7385696,2.99894 3.1375889,4.003958 1.6830177,1.209033 3.8670413,1.816874 5.9232309,1.648508 z"
     id="path1" />
  <path
     style="opacity:0.984424;fill:#000000;stroke-width:0.0353228"
     d="m 22.49142,23.904332 -4.477416,-4.47752 0.345045,-0.34375 0.345044,-0.34375 4.485276,4.48538 4.485276,4.48538 -0.334493,0.335889 c -0.183972,0.18474 -0.342779,0.33589 -0.352905,0.33589 -0.01013,0 -2.033248,-2.014884 -4.495827,-4.477519 z"
     id="path2" />
</svg>
